<svg data-v-fde0c5aa="" xmlns="http://www.w3.org/2000/svg" viewBox="0 0 300 300" class="iconLeft"><!----><defs data-v-fde0c5aa=""><!----></defs><rect data-v-fde0c5aa="" fill="#F8680C" x="0" y="0" width="300px" height="300px" class="logo-background-square"></rect><defs data-v-fde0c5aa=""><!----></defs><g data-v-fde0c5aa="" id="06244c9b-36d1-4d0d-9f3a-72d458964430" fill="#E7E7E6" transform="matrix(1.8444931948665642,0,0,1.8444931948665642,121.05431743703141,136.7959440019163)"><path d="M6.33 2.14L6.33 2.14L6.33 2.14Q6.13 4.02 5.95 5.91L5.95 5.91L5.95 5.91Q5.71 8.15 5.71 9.65L5.71 9.65L5.71 9.65Q5.71 10.14 5.74 10.61L5.74 10.61L5.74 10.61Q5.75 10.84 5.58 11.00L5.58 11.00L5.58 11.00Q5.40 11.17 5.18 11.17L5.18 11.17L5.18 11.17Q4.75 11.17 4.45 10.58L4.45 10.58L4.45 10.58Q3.56 8.83 2.23 5.10L2.23 5.10L2.23 5.10Q2.20 5.01 2.16 5.01L2.16 5.01L2.16 5.01Q2.06 5.01 2.03 5.21L2.03 5.21L2.03 5.21Q1.79 7.21 1.79 9.42L1.79 9.42L1.79 9.42Q1.79 10.49 1.85 11.59L1.85 11.59L1.85 11.59Q1.86 12.00 1.61 12.15L1.61 12.15L1.61 12.15Q1.51 12.25 1.40 12.25L1.40 12.25L1.40 12.25Q1.30 12.25 1.15 12.17L1.15 12.17L1.15 12.17Q0.94 12.07 0.88 12.04L0.88 12.04L0.88 12.04Q0.70 11.98 0.66 11.70L0.66 11.70L0.66 11.70Q0.64 11.48 0.63 11.24L0.63 11.24L0.63 11.24Q0.59 10.46 0.59 9.60L0.59 9.60L0.59 9.60Q0.59 8.12 0.76 5.89L0.76 5.89L0.76 5.89Q1.02 2.51 1.05 2.14L1.05 2.14L1.05 2.14Q1.06 1.83 1.57 1.83L1.57 1.83L1.57 1.83Q1.81 1.81 2.27 2.18L2.27 2.18L2.27 2.18Q2.72 3.04 3.37 4.96L3.37 4.96L3.37 4.96Q4.00 6.79 4.52 7.74L4.52 7.74L4.52 7.74Q4.73 5.88 5.18 2.11L5.18 2.11L5.18 2.11Q5.22 1.83 5.59 1.83L5.59 1.83L5.59 1.83Q5.71 1.83 5.88 1.88L5.88 1.88L5.88 1.88Q6.10 1.93 6.15 1.95L6.15 1.95L6.15 1.95Q6.29 2.00 6.33 2.14ZM12.08 3.00L12.08 3.00L12.08 3.00Q11.98 3.98 11.52 5.61L11.52 5.61L11.52 5.61Q10.89 7.81 10.79 8.27L10.79 8.27L10.79 8.27Q10.49 9.69 9.62 10.85L9.62 10.85L9.62 10.85Q9.07 11.59 8.36 11.58L8.36 11.58L8.36 11.58Q7.73 11.56 7.42 10.78L7.42 10.78L7.42 10.78Q6.89 9.46 6.89 7.69L6.89 7.69L6.89 7.69Q6.89 6.66 7.08 5.05L7.08 5.05L7.08 5.05Q7.07 5.19 7.07 4.19L7.07 4.19L7.07 4.19Q7.07 3.32 7.74 3.32L7.74 3.32L7.74 3.32Q7.88 3.32 8.04 3.39L8.04 3.39L8.04 3.39Q8.20 3.47 8.36 3.56L8.36 3.56L8.36 3.56Q8.37 4.27 8.32 5.66L8.32 5.66L8.32 5.66Q8.25 7.14 8.25 7.80L8.25 7.80L8.25 7.80Q8.25 8.50 8.29 9.07L8.29 9.07L8.29 9.07Q8.32 9.37 8.54 10.19L8.54 10.19L8.54 10.19Q9.13 9.53 9.46 8.44L9.46 8.44L9.46 8.44Q9.58 8.08 9.91 6.45L9.91 6.45L9.91 6.45Q10.18 5.22 10.51 4.52L10.51 4.52L10.51 4.52Q10.61 4.33 10.68 3.78L10.68 3.78L10.68 3.78Q10.75 3.23 10.85 3.02L10.85 3.02L10.85 3.02Q11.00 2.69 11.38 2.69L11.38 2.69L11.38 2.69Q11.87 2.69 12.08 3.00ZM16.32 2.18L16.32 2.18L16.32 2.18Q16.32 2.56 15.82 2.66L15.82 2.66L15.82 2.66Q15.16 2.79 15.01 2.95L15.01 2.95L15.01 2.95Q13.44 4.61 13.44 7.22L13.44 7.22L13.44 7.22Q13.44 8.46 13.83 9.55L13.83 9.55L13.83 9.55Q14.15 10.44 14.29 10.72L14.29 10.72L14.29 10.72Q14.64 11.41 15.15 11.70L15.15 11.70L15.15 11.70Q15.36 11.80 15.57 11.89L15.57 11.89L15.57 11.89Q15.79 12.01 15.79 12.24L15.79 12.24L15.79 12.24Q15.79 12.46 15.64 12.64L15.64 12.64L15.64 12.64Q15.50 12.82 15.33 12.78L15.33 12.78L15.33 12.78Q15.15 12.75 14.77 12.60L14.77 12.60L14.77 12.60Q14.10 12.21 13.31 10.93L13.31 10.93L13.31 10.93Q13.12 10.61 12.92 10.27L12.92 10.27L12.92 10.27Q12.71 9.93 12.61 9.62L12.61 9.62L12.61 9.62Q12.54 9.39 12.38 7.81L12.38 7.81L12.38 7.81Q12.32 7.32 12.32 6.86L12.32 6.86L12.32 6.86Q12.32 4.38 13.76 2.65L13.76 2.65L13.76 2.65Q14.60 1.64 15.51 1.64L15.51 1.64L15.51 1.64Q15.90 1.64 16.23 1.88L16.23 1.88L16.23 1.88Q16.32 1.95 16.32 2.18ZM20.16 9.00L20.16 9.00L20.16 9.00Q20.13 9.02 18.52 10.16L18.52 10.16L18.52 10.16Q17.58 10.84 16.86 11.16L16.86 11.16L16.86 11.16Q16.77 11.20 16.69 11.20L16.69 11.20L16.69 11.20Q16.49 11.20 16.32 10.95L16.32 10.95L16.32 10.95Q16.07 10.61 16.06 10.60L16.06 10.60L16.06 10.60Q16.03 9.37 16.21 7.17L16.21 7.17L16.21 7.17Q16.42 4.83 16.42 3.79L16.42 3.79L16.42 3.79Q16.42 3.08 16.37 2.45L16.37 2.45L16.37 2.45Q16.55 2.27 16.83 2.27L16.83 2.27L16.83 2.27Q17.36 2.27 17.44 2.66L17.44 2.66L17.44 2.66Q17.49 3.81 17.35 6.10L17.35 6.10L17.35 6.10Q17.21 8.39 17.23 9.53L17.23 9.53L17.23 9.53Q17.63 9.37 18.26 8.95L18.26 8.95L18.26 8.95Q18.94 8.47 19.25 8.32L19.25 8.32L19.25 8.32Q19.32 8.32 19.50 8.29L19.50 8.29L19.50 8.29Q19.67 8.26 19.75 8.26L19.75 8.26L19.75 8.26Q20.03 8.26 20.16 8.48L20.16 8.48L20.16 8.48Q20.33 8.79 20.16 9.00ZM25.37 3.63L25.37 3.63L25.37 3.63Q24.85 3.84 23.84 4.12L23.84 4.12L23.84 4.12Q22.83 4.40 22.32 4.61L22.32 4.61L22.32 4.61Q22.19 4.97 22.13 6.23L22.13 6.23L22.13 6.23Q22.36 6.31 22.65 6.31L22.65 6.31L22.65 6.31Q22.86 6.31 23.31 6.24L23.31 6.24L23.31 6.24Q23.76 6.17 23.97 6.17L23.97 6.17L23.97 6.17Q24.36 6.17 24.64 6.34L24.64 6.34L24.64 6.34Q24.84 6.62 24.84 6.71L24.84 6.71L24.84 6.71Q24.84 6.80 24.74 6.86L24.74 6.86L24.74 6.86Q24.71 6.87 24.54 7.06L24.54 7.06L24.54 7.06Q24.43 7.18 24.26 7.17L24.26 7.17L24.26 7.17Q23.97 7.24 23.18 7.25L23.18 7.25L23.18 7.25Q22.53 7.27 22.13 7.42L22.13 7.42L22.13 7.42Q21.87 8.46 21.87 9.06L21.87 9.06L21.87 9.06Q21.87 9.46 21.98 9.70L21.98 9.70L21.98 9.70Q22.64 10.16 24.26 10.09L24.26 10.09L24.26 10.09Q24.37 10.09 24.50 9.99L24.50 9.99L24.50 9.99Q24.63 9.88 24.71 9.88L24.71 9.88L24.71 9.88Q25.10 9.80 25.23 10.47L25.23 10.47L25.23 10.47Q25.27 10.70 25.15 10.88L25.15 10.88L25.15 10.88Q25.03 11.07 24.81 11.09L24.81 11.09L24.81 11.09Q23.11 11.14 21.87 10.82L21.87 10.82L21.87 10.82Q21.48 10.72 21.15 10.39L21.15 10.39L21.15 10.39Q20.83 10.05 20.79 9.63L20.79 9.63L20.79 9.63Q20.66 8.41 20.79 7.45L20.79 7.45L20.79 7.45Q20.40 7.18 20.44 6.93L20.44 6.93L20.44 6.93Q20.45 6.80 20.66 6.70L20.66 6.70L20.66 6.70Q20.86 6.59 20.89 6.48L20.89 6.48L20.89 6.48Q20.92 6.37 21 5.15L21 5.15L21 5.15Q20.22 5.00 20.23 4.56L20.23 4.56L20.23 4.56Q20.24 4.16 20.72 3.92L20.72 3.92L20.72 3.92Q21.17 3.74 21.62 3.56L21.62 3.56L21.62 3.56Q22.15 3.29 22.93 3.08L22.93 3.08L22.93 3.08Q23.60 2.90 24.29 2.73L24.29 2.73L24.29 2.73Q24.36 2.72 24.46 2.72L24.46 2.72L24.46 2.72Q24.84 2.72 25.34 3.01L25.34 3.01L25.34 3.01Q25.35 3.07 25.41 3.22L25.41 3.22L25.41 3.22Q25.47 3.37 25.47 3.44L25.47 3.44L25.47 3.44Q25.47 3.56 25.37 3.63ZM30.72 9.95L30.72 9.95L30.72 9.95Q30.80 10.18 30.80 10.35L30.80 10.35L30.80 10.35Q30.80 10.63 30.56 10.84L30.56 10.84L30.56 10.84Q30.32 11.05 30.24 11.03L30.24 11.03L30.24 11.03Q29.55 10.91 29.37 9.93L29.37 9.93L29.37 9.93Q29.18 8.86 28.91 8.15L28.91 8.15L28.91 8.15Q28.43 8.19 27.96 8.23L27.96 8.23L27.96 8.23Q27.41 8.30 27.10 8.57L27.10 8.57L27.10 8.57Q26.95 9.00 26.70 10.11L26.70 10.11L26.70 10.11Q26.46 11.13 26.24 11.66L26.24 11.66L26.24 11.66Q26.12 11.91 25.76 11.80L25.76 11.80L25.76 11.80Q25.30 11.65 25.27 11.38L25.27 11.38L25.27 11.38Q25.23 10.85 25.58 9.95L25.58 9.95L25.58 9.95Q26.00 8.93 26.04 8.50L26.04 8.50L26.04 8.50Q26.05 8.37 25.86 8.22L25.86 8.22L25.86 8.22Q25.66 8.06 25.66 7.98L25.66 7.98L25.66 7.98Q25.66 7.91 25.72 7.83L25.72 7.83L25.72 7.83Q25.79 7.76 26.02 7.71L26.02 7.71L26.02 7.71Q26.25 7.66 26.28 7.56L26.28 7.56L26.28 7.56Q26.53 6.86 27.08 4.96L27.08 4.96L27.08 4.96Q27.54 3.30 27.90 2.42L27.90 2.42L27.90 2.42Q27.99 2.23 28.25 2.23L28.25 2.23L28.25 2.23Q28.45 2.23 28.60 2.35L28.60 2.35L28.60 2.35Q28.99 2.69 29.11 3.36L29.11 3.36L29.11 3.36Q29.19 3.93 29.26 4.51L29.26 4.51L29.26 4.51Q29.96 7.81 30.72 9.95ZM28.67 7.28L28.67 7.28L28.67 7.28Q28.63 6.76 28.49 6.12L28.49 6.12L28.49 6.12Q28.35 5.56 28.22 5.00L28.22 5.00L28.22 5.00Q27.80 6.16 27.50 7.32L27.50 7.32L27.50 7.32Q27.72 7.28 28.67 7.28ZM36.93 10.72L36.93 10.72L36.93 10.72Q36.97 10.78 36.97 10.85L36.97 10.85L36.97 10.85Q36.97 11.17 36.30 11.34L36.30 11.34L36.30 11.34Q35.56 10.77 34.45 9.58L34.45 9.58L34.45 9.58Q33.22 8.25 32.62 7.73L32.62 7.73L32.62 7.73Q32.58 8.09 32.47 9.63L32.47 9.63L32.47 9.63Q32.40 10.79 32.21 11.48L32.21 11.48L32.21 11.48Q32.19 11.48 32.04 11.55L32.04 11.55L32.04 11.55Q31.89 11.62 31.79 11.59L31.79 11.59L31.79 11.59Q31.18 11.45 31.18 10.74L31.18 10.74L31.18 10.74Q31.18 10.53 31.23 10.18L31.23 10.18L31.23 10.18Q31.29 9.77 31.30 9.67L31.30 9.67L31.30 9.67Q31.36 8.86 31.37 7.74L31.37 7.74L31.37 6.22L31.37 6.22Q31.37 4.31 31.58 3.01L31.58 3.01L31.58 3.01Q31.72 2.14 33.22 2.21L33.22 2.21L33.22 2.21Q33.98 2.24 34.54 2.97L34.54 2.97L34.54 2.97Q35.06 3.64 35.06 4.42L35.06 4.42L35.06 4.42Q35.06 5.08 34.57 5.74L34.57 5.74L34.57 5.74Q34.15 6.33 33.53 6.66L33.53 6.66L33.53 6.66Q33.28 6.80 33.28 6.97L33.28 6.97L33.28 6.97Q33.28 7.15 33.57 7.41L33.57 7.41L33.57 7.41Q33.80 7.59 34.02 7.77L34.02 7.77L34.02 7.77Q34.03 7.78 35.56 9.17L35.56 9.17L35.56 9.17Q36.53 10.04 36.93 10.72ZM33.98 4.44L33.98 4.44L33.98 4.44Q34.02 4.19 34.01 3.99L34.01 3.99L34.01 3.99Q33.96 3.70 33.76 3.46L33.76 3.46L33.76 3.46Q33.56 3.22 33.11 3.22L33.11 3.22L33.11 3.22Q32.77 3.22 32.69 3.43L32.69 3.43L32.69 3.43Q32.62 3.78 32.62 4.23L32.62 4.23L32.62 4.23Q32.62 4.41 32.66 5.17L32.66 5.17L32.66 5.17Q32.69 5.74 32.66 6.10L32.66 6.10L32.66 6.10Q33.82 5.24 33.98 4.44ZM45.64 2.14L45.64 2.14L45.64 2.14Q45.44 4.02 45.26 5.91L45.26 5.91L45.26 5.91Q45.02 8.15 45.02 9.65L45.02 9.65L45.02 9.65Q45.02 10.14 45.05 10.61L45.05 10.61L45.05 10.61Q45.07 10.84 44.89 11.00L44.89 11.00L44.89 11.00Q44.72 11.17 44.49 11.17L44.49 11.17L44.49 11.17Q44.06 11.17 43.76 10.58L43.76 10.58L43.76 10.58Q42.87 8.83 41.54 5.10L41.54 5.10L41.54 5.10Q41.51 5.01 41.47 5.01L41.47 5.01L41.47 5.01Q41.37 5.01 41.34 5.21L41.34 5.21L41.34 5.21Q41.10 7.21 41.10 9.42L41.10 9.42L41.10 9.42Q41.10 10.49 41.16 11.59L41.16 11.59L41.16 11.59Q41.17 12.00 40.92 12.15L40.92 12.15L40.92 12.15Q40.82 12.25 40.71 12.25L40.71 12.25L40.71 12.25Q40.61 12.25 40.46 12.17L40.46 12.17L40.46 12.17Q40.25 12.07 40.19 12.04L40.19 12.04L40.19 12.04Q40.01 11.98 39.97 11.70L39.97 11.70L39.97 11.70Q39.96 11.48 39.94 11.24L39.94 11.24L39.94 11.24Q39.90 10.46 39.90 9.60L39.90 9.60L39.90 9.60Q39.90 8.12 40.07 5.89L40.07 5.89L40.07 5.89Q40.33 2.51 40.36 2.14L40.36 2.14L40.36 2.14Q40.38 1.83 40.88 1.83L40.88 1.83L40.88 1.83Q41.12 1.81 41.58 2.18L41.58 2.18L41.58 2.18Q42.03 3.04 42.69 4.96L42.69 4.96L42.69 4.96Q43.32 6.79 43.83 7.74L43.83 7.74L43.83 7.74Q44.04 5.88 44.49 2.11L44.49 2.11L44.49 2.11Q44.53 1.83 44.90 1.83L44.90 1.83L44.90 1.83Q45.02 1.83 45.19 1.88L45.19 1.88L45.19 1.88Q45.42 1.93 45.46 1.95L45.46 1.95L45.46 1.95Q45.60 2.00 45.64 2.14ZM51.39 3.00L51.39 3.00L51.39 3.00Q51.30 3.98 50.83 5.61L50.83 5.61L50.83 5.61Q50.20 7.81 50.11 8.27L50.11 8.27L50.11 8.27Q49.80 9.69 48.93 10.85L48.93 10.85L48.93 10.85Q48.38 11.59 47.67 11.58L47.67 11.58L47.67 11.58Q47.04 11.56 46.73 10.78L46.73 10.78L46.73 10.78Q46.20 9.46 46.20 7.69L46.20 7.69L46.20 7.69Q46.20 6.66 46.40 5.05L46.40 5.05L46.40 5.05Q46.38 5.19 46.38 4.19L46.38 4.19L46.38 4.19Q46.38 3.32 47.05 3.32L47.05 3.32L47.05 3.32Q47.19 3.32 47.35 3.39L47.35 3.39L47.35 3.39Q47.52 3.47 47.67 3.56L47.67 3.56L47.67 3.56Q47.68 4.27 47.63 5.66L47.63 5.66L47.63 5.66Q47.56 7.14 47.56 7.80L47.56 7.80L47.56 7.80Q47.56 8.50 47.60 9.07L47.60 9.07L47.60 9.07Q47.63 9.37 47.85 10.19L47.85 10.19L47.85 10.19Q48.44 9.53 48.78 8.44L48.78 8.44L48.78 8.44Q48.89 8.08 49.22 6.45L49.22 6.45L49.22 6.45Q49.49 5.22 49.83 4.52L49.83 4.52L49.83 4.52Q49.92 4.33 49.99 3.78L49.99 3.78L49.99 3.78Q50.06 3.23 50.16 3.02L50.16 3.02L50.16 3.02Q50.32 2.69 50.69 2.69L50.69 2.69L50.69 2.69Q51.18 2.69 51.39 3.00ZM57.51 10.72L57.51 10.72L57.51 10.72Q57.55 10.78 57.55 10.85L57.55 10.85L57.55 10.85Q57.55 11.17 56.88 11.34L56.88 11.34L56.88 11.34Q56.14 10.77 55.03 9.58L55.03 9.58L55.03 9.58Q53.80 8.25 53.20 7.73L53.20 7.73L53.20 7.73Q53.16 8.09 53.05 9.63L53.05 9.63L53.05 9.63Q52.98 10.79 52.79 11.48L52.79 11.48L52.79 11.48Q52.77 11.48 52.62 11.55L52.62 11.55L52.62 11.55Q52.47 11.62 52.37 11.59L52.37 11.59L52.37 11.59Q51.76 11.45 51.76 10.74L51.76 10.74L51.76 10.74Q51.76 10.53 51.81 10.18L51.81 10.18L51.81 10.18Q51.87 9.77 51.88 9.67L51.88 9.67L51.88 9.67Q51.94 8.86 51.95 7.74L51.95 7.74L51.95 6.22L51.95 6.22Q51.95 4.31 52.16 3.01L52.16 3.01L52.16 3.01Q52.30 2.14 53.80 2.21L53.80 2.21L53.80 2.21Q54.56 2.24 55.12 2.97L55.12 2.97L55.12 2.97Q55.64 3.64 55.64 4.42L55.64 4.42L55.64 4.42Q55.64 5.08 55.15 5.74L55.15 5.74L55.15 5.74Q54.73 6.33 54.11 6.66L54.11 6.66L54.11 6.66Q53.86 6.80 53.86 6.97L53.86 6.97L53.86 6.97Q53.86 7.15 54.15 7.41L54.15 7.41L54.15 7.41Q54.38 7.59 54.60 7.77L54.60 7.77L54.60 7.77Q54.61 7.78 56.14 9.17L56.14 9.17L56.14 9.17Q57.11 10.04 57.51 10.72ZM54.56 4.44L54.56 4.44L54.56 4.44Q54.60 4.19 54.59 3.99L54.59 3.99L54.59 3.99Q54.54 3.70 54.34 3.46L54.34 3.46L54.34 3.46Q54.14 3.22 53.69 3.22L53.69 3.22L53.69 3.22Q53.35 3.22 53.27 3.43L53.27 3.43L53.27 3.43Q53.20 3.78 53.20 4.23L53.20 4.23L53.20 4.23Q53.20 4.41 53.24 5.17L53.24 5.17L53.24 5.17Q53.27 5.74 53.24 6.10L53.24 6.10L53.24 6.10Q54.40 5.24 54.56 4.44ZM59.77 2.16L59.77 2.16L59.77 2.16Q59.77 2.44 59.36 2.65L59.36 2.65L59.36 2.65Q59.25 2.70 59.12 2.66L59.12 2.66L59.12 2.66Q58.93 2.60 58.91 2.60L58.91 2.60L58.91 2.60Q58.83 2.60 58.74 2.69L58.74 2.69L58.74 2.69Q57.99 3.44 57.99 4.54L57.99 4.54L57.99 4.54Q57.99 4.94 58.11 5.29L58.11 5.29L58.11 5.29Q58.17 5.45 59.18 7.46L59.18 7.46L59.18 7.46Q59.85 8.81 59.85 9.74L59.85 9.74L59.85 9.74Q59.85 10.51 59.47 11.23L59.47 11.23L59.47 11.23Q59.35 11.47 58.84 11.84L58.84 11.84L58.84 11.84Q58.44 12.14 58.11 12.14L58.11 12.14L58.11 12.14Q57.99 12.14 57.88 12.10L57.88 12.10L57.88 12.10Q57.46 11.91 57.46 11.63L57.46 11.63L57.46 11.63Q57.46 11.47 57.67 11.23L57.67 11.23L57.67 11.23Q57.72 11.16 57.93 11.14L57.93 11.14L57.93 11.14Q58.14 11.13 58.21 10.98L58.21 10.98L58.21 10.98Q58.51 10.36 58.51 9.72L58.51 9.72L58.51 9.72Q58.51 8.81 57.60 7.08L57.60 7.08L57.60 7.08Q56.70 5.35 56.70 4.31L56.70 4.31L56.70 4.31Q56.70 3.46 57.04 2.79L57.04 2.79L57.04 2.79Q57.41 2.02 58.11 1.68L58.11 1.68L58.11 1.68Q58.44 1.53 58.74 1.53L58.74 1.53L58.74 1.53Q59.33 1.53 59.63 1.85L59.63 1.85L59.63 1.85Q59.77 2.00 59.77 2.16ZM65.48 3.63L65.48 3.63L65.48 3.63Q64.96 3.84 63.95 4.12L63.95 4.12L63.95 4.12Q62.94 4.40 62.43 4.61L62.43 4.61L62.43 4.61Q62.30 4.97 62.24 6.23L62.24 6.23L62.24 6.23Q62.47 6.31 62.76 6.31L62.76 6.31L62.76 6.31Q62.97 6.31 63.42 6.24L63.42 6.24L63.42 6.24Q63.87 6.17 64.08 6.17L64.08 6.17L64.08 6.17Q64.47 6.17 64.75 6.34L64.75 6.34L64.75 6.34Q64.95 6.62 64.95 6.71L64.95 6.71L64.95 6.71Q64.95 6.80 64.85 6.86L64.85 6.86L64.85 6.86Q64.82 6.87 64.65 7.06L64.65 7.06L64.65 7.06Q64.54 7.18 64.37 7.17L64.37 7.17L64.37 7.17Q64.08 7.24 63.29 7.25L63.29 7.25L63.29 7.25Q62.64 7.27 62.24 7.42L62.24 7.42L62.24 7.42Q61.98 8.46 61.98 9.06L61.98 9.06L61.98 9.06Q61.98 9.46 62.09 9.70L62.09 9.70L62.09 9.70Q62.75 10.16 64.37 10.09L64.37 10.09L64.37 10.09Q64.48 10.09 64.61 9.99L64.61 9.99L64.61 9.99Q64.74 9.88 64.82 9.88L64.82 9.88L64.82 9.88Q65.21 9.80 65.34 10.47L65.34 10.47L65.34 10.47Q65.38 10.70 65.26 10.88L65.26 10.88L65.26 10.88Q65.14 11.07 64.92 11.09L64.92 11.09L64.92 11.09Q63.22 11.14 61.98 10.82L61.98 10.82L61.98 10.82Q61.59 10.72 61.26 10.39L61.26 10.39L61.26 10.39Q60.94 10.05 60.90 9.63L60.90 9.63L60.90 9.63Q60.77 8.41 60.90 7.45L60.90 7.45L60.90 7.45Q60.51 7.18 60.55 6.93L60.55 6.93L60.55 6.93Q60.56 6.80 60.77 6.70L60.77 6.70L60.77 6.70Q60.97 6.59 61.00 6.48L61.00 6.48L61.00 6.48Q61.03 6.37 61.11 5.15L61.11 5.15L61.11 5.15Q60.33 5.00 60.34 4.56L60.34 4.56L60.34 4.56Q60.35 4.16 60.83 3.92L60.83 3.92L60.83 3.92Q61.28 3.74 61.73 3.56L61.73 3.56L61.73 3.56Q62.26 3.29 63.04 3.08L63.04 3.08L63.04 3.08Q63.71 2.90 64.40 2.73L64.40 2.73L64.40 2.73Q64.47 2.72 64.57 2.72L64.57 2.72L64.57 2.72Q64.95 2.72 65.45 3.01L65.45 3.01L65.45 3.01Q65.46 3.07 65.52 3.22L65.52 3.22L65.52 3.22Q65.58 3.37 65.58 3.44L65.58 3.44L65.58 3.44Q65.58 3.56 65.48 3.63ZM71.50 10.72L71.50 10.72L71.50 10.72Q71.54 10.78 71.54 10.85L71.54 10.85L71.54 10.85Q71.54 11.17 70.87 11.34L70.87 11.34L70.87 11.34Q70.13 10.77 69.02 9.58L69.02 9.58L69.02 9.58Q67.79 8.25 67.19 7.73L67.19 7.73L67.19 7.73Q67.14 8.09 67.03 9.63L67.03 9.63L67.03 9.63Q66.96 10.79 66.78 11.48L66.78 11.48L66.78 11.48Q66.75 11.48 66.60 11.55L66.60 11.55L66.60 11.55Q66.46 11.62 66.36 11.59L66.36 11.59L66.36 11.59Q65.74 11.45 65.74 10.74L65.74 10.74L65.74 10.74Q65.74 10.53 65.80 10.18L65.80 10.18L65.80 10.18Q65.86 9.77 65.87 9.67L65.87 9.67L65.87 9.67Q65.93 8.86 65.94 7.74L65.94 7.74L65.94 6.22L65.94 6.22Q65.94 4.31 66.15 3.01L66.15 3.01L66.15 3.01Q66.29 2.14 67.79 2.21L67.79 2.21L67.79 2.21Q68.54 2.24 69.10 2.97L69.10 2.97L69.10 2.97Q69.62 3.64 69.62 4.42L69.62 4.42L69.62 4.42Q69.62 5.08 69.13 5.74L69.13 5.74L69.13 5.74Q68.71 6.33 68.10 6.66L68.10 6.66L68.10 6.66Q67.84 6.80 67.84 6.97L67.84 6.97L67.84 6.97Q67.84 7.15 68.14 7.41L68.14 7.41L68.14 7.41Q68.36 7.59 68.59 7.77L68.59 7.77L68.59 7.77Q68.60 7.78 70.13 9.17L70.13 9.17L70.13 9.17Q71.09 10.04 71.50 10.72ZM68.54 4.44L68.54 4.44L68.54 4.44Q68.59 4.19 68.57 3.99L68.57 3.99L68.57 3.99Q68.53 3.70 68.33 3.46L68.33 3.46L68.33 3.46Q68.12 3.22 67.68 3.22L67.68 3.22L67.68 3.22Q67.34 3.22 67.26 3.43L67.26 3.43L67.26 3.43Q67.19 3.78 67.19 4.23L67.19 4.23L67.19 4.23Q67.19 4.41 67.23 5.17L67.23 5.17L67.23 5.17Q67.26 5.74 67.23 6.10L67.23 6.10L67.23 6.10Q68.39 5.24 68.54 4.44ZM75.33 2.34L75.33 2.34L75.33 2.34Q74.94 3.92 73.89 6.45L73.89 6.45L73.89 6.45Q72.66 9.41 72.31 10.53L72.31 10.53L72.31 10.53Q72.24 10.75 72.24 11.09L72.24 11.09L72.24 11.09Q72.25 11.55 72.24 11.68L72.24 11.68L72.24 11.68Q72.20 12.17 71.72 12.17L71.72 12.17L71.72 12.17Q71.48 12.19 71.21 12.00L71.21 12.00L71.21 12.00Q70.94 11.82 70.95 11.61L70.95 11.61L70.95 11.61Q70.99 10.58 71.47 9.27L71.47 9.27L71.47 9.27Q71.90 8.15 72.34 7.03L72.34 7.03L72.34 7.03Q71.34 4.37 70.64 3.14L70.64 3.14L70.64 3.14Q70.60 3.07 70.60 3.00L70.60 3.00L70.60 3.00Q70.60 2.84 70.78 2.71L70.78 2.71L70.78 2.71Q70.95 2.58 71.12 2.58L71.12 2.58L71.12 2.58Q71.15 2.58 71.65 2.73L71.65 2.73L71.65 2.73Q72.00 3.26 72.38 4.10L72.38 4.10L72.38 4.10Q72.70 4.82 73.01 5.53L73.01 5.53L73.01 5.53Q73.29 4.69 73.57 3.86L73.57 3.86L73.57 3.86Q73.89 2.90 74.28 2.27L74.28 2.27L74.28 2.27Q74.40 2.07 74.68 2.07L74.68 2.07L74.68 2.07Q75.07 2.07 75.33 2.34Z"></path></g><defs data-v-fde0c5aa=""><!----></defs><g data-v-fde0c5aa="" id="8e9232b7-d4d3-421a-9544-9d9ab7b51a01" stroke="none" fill="#E7E7E6" transform="matrix(0.7239824703991804,0,0,0.7239824703991804,38.372097201024765,113.8009910936599)"><switch><g><path d="M81.417 48.562a21.226 21.226 0 0 0-.514-1.694 1.378 1.378 0 0 0-.122-.26c-.364-.593-1.211-.772-2.37-.96-1.066-.173-2.275-.37-2.793-1.485-.408-.875-.116-1.812.191-2.804.428-1.375.705-2.489.073-3.275a15.146 15.146 0 0 0-.379-.448s-.226-.248-.288-.314l-.105-.108-.31-.303a14.955 14.955 0 0 0-.319-.288c-.993-.912-2.024-1.631-3.064-2.138a10.29 10.29 0 0 0-4.533-1.053c-2.718 0-5.611 1.072-8.369 3.099C44.012 47.194 28.677 49.515 17.48 51.207c-8.859 1.34-14.711 2.225-15.216 6.432-.103.858.309 1.817 1.225 2.85 4.702 5.3 20.993 11.021 39.114 11.021 9.745 0 18.754-1.623 26.778-4.821 5.858-2.335 12.593-5.991 12.681-13.605.016-1.415-.201-2.934-.645-4.522zm-14.695-7.45c-1.085.238-1.629.457-2.479.943-.442.247-.807.49-1.274.83a77.258 77.258 0 0 1-4.416 2.972c-4.014 2.507-8.297 4.568-12.706 6.235-4.427 1.626-8.975 2.853-13.557 3.771-2.293.454-4.605.782-6.909 1.089l-3.458.422-3.46.332-.033.003c-3.605.347-3.712-.648-.146-1.185 4.569-.684 9.118-1.407 13.6-2.436 4.48-1.021 8.893-2.334 13.157-4.026a74.672 74.672 0 0 0 12.256-6.2c.97-.61 1.926-1.243 2.866-1.898l1.398-1c.466-.341.982-.695 1.507-.989 1.058-.587 2.221-1.073 3.522-1.157a4.948 4.948 0 0 1 2.81.684c.302.172.539.346.793.534 2.282 1.682-1.33.607-3.471 1.076zm23.396-2.807c-1.338.903-3.364 1.602-4.032 3.137-.722 1.656-.261 4.631-.447 6.399-.375 3.536-2.075 7.374-2.168 4.47-.074-2.354-.572-4.271-1.157-5.939-.962-2.742-4.855-1.792-5.341-2.838-.463-.996 1.904-4.108.075-6.387-.801-.996-1.942-2.204-4.407-3.623-2.268-1.305 2.913-.747 5.553.871 2.128 1.305 3.033 2.672 5.576 2.714 3.215.053 7.033-2.082 9.031-4.319.852-.954 2.372-2.553 3.069-3.848.766-1.421 2.223.886 1.809 1.714-.741 1.484-2.201 3.097-3.326 4.324-1.419 1.551-2.484 2.145-4.235 3.325z"></path></g></switch></g><!----></svg>