<?xml version="1.0" standalone="no"?>
<!DOCTYPE svg PUBLIC "-//W3C//DTD SVG 20010904//EN"
 "http://www.w3.org/TR/2001/REC-SVG-20010904/DTD/svg10.dtd">
<svg version="1.0" xmlns="http://www.w3.org/2000/svg"
 width="225.000000pt" height="225.000000pt" viewBox="0 0 225.000000 225.000000"
 preserveAspectRatio="xMidYMid meet">
<metadata>
Created by potrace 1.14, written by Peter Selinger 2001-2017
</metadata>
<g transform="translate(0.000000,225.000000) scale(0.100000,-0.100000)"
fill="#000000" stroke="none">
<path d="M1080 2212 c-35 -5 -43 -16 -35 -50 6 -28 8 -30 45 -25 30 4 49 0 84
-21 56 -33 58 -36 41 -70 -8 -15 -17 -42 -21 -62 -5 -29 -2 -37 19 -54 13 -11
42 -42 63 -71 38 -49 40 -51 81 -46 108 12 169 122 121 217 -28 54 -68 79
-136 84 -40 3 -61 12 -94 39 -58 46 -116 67 -168 59z"/>
<path d="M931 2083 c-58 -65 -78 -137 -62 -218 7 -33 28 -94 46 -137 19 -42
37 -93 41 -115 17 -89 1 -173 -40 -212 -65 -62 -115 -13 -156 154 l-17 70 -30
-65 c-58 -124 -71 -243 -38 -356 16 -56 89 -174 108 -175 78 -4 109 -4 113 0
2 2 -7 18 -20 35 -35 46 -63 105 -79 168 l-15 57 36 -20 c117 -62 215 37 229
231 2 41 11 81 18 88 19 21 81 32 100 18 14 -10 14 -19 -5 -96 -36 -150 -23
-212 53 -249 38 -19 73 -19 108 0 28 15 68 72 75 108 6 29 8 31 24 16 16 -15
21 -14 56 10 21 14 40 28 42 29 6 7 -29 80 -54 113 -27 36 -101 90 -110 81 -3
-3 -10 -37 -15 -74 -12 -88 -25 -127 -49 -149 -17 -16 -19 -16 -39 4 l-20 20
30 71 c39 93 41 167 5 245 -30 67 -67 115 -112 150 l-34 26 6 -45 c13 -89 -20
-125 -84 -92 -50 26 -67 88 -66 234 0 67 -1 122 -2 122 -1 0 -21 -21 -43 -47z"/>
<path d="M400 1790 c-396 -38 -349 -398 103 -787 46 -40 48 -41 77 -26 17 8
30 18 30 23 0 4 -23 28 -51 52 -187 157 -306 309 -344 441 -29 99 1 166 87
203 57 23 209 28 308 9 41 -8 78 -15 81 -15 3 0 10 15 16 34 l10 34 -56 11
c-31 6 -83 13 -116 17 -33 3 -64 6 -70 8 -5 1 -39 -1 -75 -4z"/>
<path d="M1545 1769 c-133 -28 -197 -49 -193 -61 2 -6 21 -17 42 -26 33 -13
46 -13 85 -3 199 54 379 52 466 -5 27 -17 105 -27 105 -12 0 19 -58 70 -108
95 -51 25 -67 28 -182 29 -92 2 -149 -3 -215 -17z"/>
<path d="M2098 1686 c-15 -11 -16 -15 -3 -32 27 -36 18 -63 -43 -122 -85 -82
-168 -144 -194 -144 -13 1 -70 3 -128 6 -97 5 -109 4 -155 -19 -33 -16 -94
-67 -175 -148 -171 -169 -259 -216 -456 -242 -51 -6 -230 -38 -275 -49 -47
-11 -116 -55 -163 -106 -56 -60 -74 -96 -58 -112 9 -9 25 -6 70 16 133 66 218
72 557 41 86 -8 293 -5 345 5 119 22 239 77 337 152 89 68 133 140 139 227 2
31 7 82 10 113 l6 57 109 96 c135 120 152 142 152 205 0 26 -3 53 -7 59 -10
15 -47 13 -68 -3z m-387 -365 l23 -18 -32 5 c-57 8 -82 -7 -204 -123 -135
-129 -219 -179 -363 -215 -79 -19 -154 -27 -85 -9 173 47 266 95 361 189 41
41 87 89 101 107 62 77 149 105 199 64z m-1031 -438 c-8 -3 -44 -22 -80 -41
-54 -29 -62 -31 -45 -13 27 31 84 60 115 60 15 0 19 -3 10 -6z"/>
<path d="M206 1055 c-98 -34 -131 -127 -81 -229 18 -37 21 -54 14 -73 -11 -31
-12 -116 0 -109 4 3 6 -5 4 -18 -3 -13 2 -30 11 -39 9 -8 16 -20 16 -24 0 -14
46 -51 88 -73 79 -40 254 -47 400 -16 40 9 75 16 76 16 2 0 13 -30 26 -68 43
-131 98 -231 165 -300 35 -36 68 -61 74 -58 6 4 11 2 11 -4 0 -7 6 -10 12 -8
7 3 24 -1 38 -9 22 -11 25 -11 28 3 3 14 5 14 15 0 10 -13 19 -14 50 -5 23 6
35 14 31 21 -4 7 -3 8 4 4 17 -10 84 39 124 91 85 113 173 351 194 525 l6 47
-32 -9 c-18 -5 -35 -11 -37 -14 -2 -2 -15 -50 -28 -107 -61 -271 -172 -465
-280 -489 -85 -19 -173 47 -241 182 -43 85 -84 197 -78 212 2 6 57 31 121 55
103 38 303 127 303 135 0 2 -33 4 -72 5 -65 2 -83 -2 -165 -38 -357 -155 -696
-179 -779 -54 -20 30 -26 126 -8 142 5 5 29 11 53 14 105 11 163 121 116 220
-28 59 -114 94 -179 72z m921 -1000 c0 -8 -4 -12 -9 -9 -5 3 -6 10 -3 15 9 13
12 11 12 -6z"/>
<path d="M660 1037 c0 -17 5 -27 15 -27 19 0 19 9 0 34 -14 19 -15 19 -15 -7z"/>
<path d="M1908 985 c-24 -32 -23 -37 12 -89 47 -70 72 -134 78 -202 4 -61 4
-62 -36 -102 -41 -41 -103 -65 -110 -42 -10 29 -65 79 -95 86 -75 16 -128 -3
-173 -61 -20 -27 -26 -46 -26 -81 4 -156 200 -211 280 -79 22 36 36 47 83 65
60 21 121 77 140 128 15 38 13 119 -4 174 -16 53 -74 159 -109 200 l-23 27
-17 -24z"/>
<path d="M694 683 c13 -71 16 -75 44 -68 38 9 41 15 33 60 -6 38 -8 40 -45 43
l-38 3 6 -38z"/>
</g>
</svg>
